HIERARCHY
ROOT SimulationBone
{
	OFFSET 0.000000 0.000000 0.000000
	CHANNELS 6 Xposition Yposition Zposition Zrotation Yrotation Xrotation 
	JOINT Hips
	{
		OFFSET 0.000000 0.000000 0.000000
		CHANNELS 6 Xposition Yposition Zposition Zrotation Yrotation Xrotation 
		JOINT LeftUpLeg
		{
			OFFSET 0.103454 1.857841 10.548502
			CHANNELS 3 Zrotation Yrotation Xrotation
			JOINT LeftLeg
			{
				OFFSET 43.500000 -0.000034 -0.000004
				CHANNELS 3 Zrotation Yrotation Xrotation
				JOINT LeftFoot
				{
					OFFSET 42.372192 0.000027 -0.000002
					CHANNELS 3 Zrotation Yrotation Xrotation
					JOINT LeftToe
					{
						OFFSET 17.300003 0.000001 0.000001
						CHANNELS 3 Zrotation Yrotation Xrotation
						End Site
						{
							OFFSET 0.000000 0.000000 0.000000
						}
					}
				}
			}
		}
		JOINT RightUpLeg
		{
			OFFSET 0.103461 1.857837 -10.548502
			CHANNELS 3 Zrotation Yrotation Xrotation
			JOINT RightLeg
			{
				OFFSET 43.500046 -0.000034 0.000013
				CHANNELS 3 Zrotation Yrotation Xrotation
				JOINT RightFoot
				{
					OFFSET 42.372261 0.000004 0.000013
					CHANNELS 3 Zrotation Yrotation Xrotation
					JOINT RightToe
					{
						OFFSET 17.299986 -0.000008 0.000013
						CHANNELS 3 Zrotation Yrotation Xrotation
						End Site
						{
							OFFSET 0.000000 0.000000 0.000000
						}
					}
				}
			}
		}
		JOINT Spine
		{
			OFFSET 6.901964 -2.603740 0.000003
			CHANNELS 3 Zrotation Yrotation Xrotation
			JOINT Spine1
			{
				OFFSET 12.588108 0.000020 -0.000003
				CHANNELS 3 Zrotation Yrotation Xrotation
				JOINT Spine2
				{
					OFFSET 12.343194 -0.000020 0.000000
					CHANNELS 3 Zrotation Yrotation Xrotation
					JOINT Neck
					{
						OFFSET 25.832893 -0.000004 0.000001
						CHANNELS 3 Zrotation Yrotation Xrotation
						JOINT Head
						{
							OFFSET 11.766617 0.000023 0.000000
							CHANNELS 3 Zrotation Yrotation Xrotation
							End Site
							{
								OFFSET 0.000000 0.000000 0.000000
							}
						}
					}
					JOINT LeftShoulder
					{
						OFFSET 19.745911 -1.480362 6.000106
						CHANNELS 3 Zrotation Yrotation Xrotation
						JOINT LeftArm
						{
							OFFSET 11.284124 -0.000010 -0.000029
							CHANNELS 3 Zrotation Yrotation Xrotation
							JOINT LeftForeArm
							{
								OFFSET 33.000050 0.000006 0.000043
								CHANNELS 3 Zrotation Yrotation Xrotation
								JOINT LeftHand
								{
									OFFSET 25.200006 0.000015 0.000002
									CHANNELS 3 Zrotation Yrotation Xrotation
									End Site
									{
										OFFSET 0.000000 0.000000 0.000000
									}
								}
							}
						}
					}
					JOINT RightShoulder
					{
						OFFSET 19.746103 -1.480366 -6.000076
						CHANNELS 3 Zrotation Yrotation Xrotation
						JOINT RightArm
						{
							OFFSET 11.284135 -0.000031 -0.000006
							CHANNELS 3 Zrotation Yrotation Xrotation
							JOINT RightForeArm
							{
								OFFSET 33.000095 0.000024 0.000006
								CHANNELS 3 Zrotation Yrotation Xrotation
								JOINT RightHand
								{
									OFFSET 25.199774 0.000153 0.000421
									CHANNELS 3 Zrotation Yrotation Xrotation
									End Site
									{
										OFFSET 0.000000 0.000000 0.000000
									}
								}
							}
						}
					}
				}
			}
		}
	}
}
MOTION
Frames: 14
Frame Time: 0.033333
-169.761818 0.000000 -196.845900 0.000000 81.996975 0.000000 1.500546 83.433151 -0.353138 96.763690 0.795946 -174.244157 -162.736606 0.952899 173.231684 -41.708858 -0.527222 -1.930868 77.901852 1.662236 0.996841 21.454563 0.003099 0.000019 148.925308 -2.076003 -179.959174 -36.289280 2.769664 4.155447 64.517619 -3.987680 -2.174584 21.454550 -0.003084 0.000000 8.659660 0.871628 -2.983651 7.257789 1.928283 -5.907607 6.941348 1.892502 -5.919100 14.433303 -5.718351 -11.647878 -14.786335 2.998563 -13.537127 -171.802685 -74.712919 -9.823695 -25.156014 54.842908 5.369331 -54.498547 -20.091838 2.275657 0.668006 -8.567811 10.139047 -146.493692 71.296704 35.891401 4.721951 -51.564284 -49.149584 -24.787989 10.522520 -0.851375 10.380188 -4.371768 -36.600569 
-169.628125 0.000000 -201.126947 0.000000 82.305574 0.000000 1.584357 83.777496 -0.163987 97.118214 1.500937 -174.194160 -168.184283 -1.175597 172.048531 -55.508790 0.024311 -2.305074 71.132575 0.313888 -4.054874 21.454560 0.003102 0.000021 150.459669 -2.037807 -177.858372 -39.951668 2.977370 3.293088 69.272079 -3.497281 -2.970353 21.454557 -0.003104 -0.000001 8.749375 1.153545 -2.666704 7.430828 2.475597 -5.255095 7.113891 2.443737 -5.269920 15.504798 -4.881476 -12.244083 -14.922548 3.090051 -14.139782 -174.907771 -75.176054 -6.648286 -27.829621 56.415716 5.780077 -45.184932 -19.809893 1.948158 3.740476 -6.933425 6.308574 -148.380191 70.872946 33.967183 2.330569 -51.984228 -46.315707 -24.147633 10.682420 -0.852174 8.238887 -0.111362 -32.077806 
-169.551794 0.000000 -205.412471 0.000000 82.641911 0.000000 1.569828 84.540421 0.168432 97.285719 2.308404 -174.581415 -174.786344 -2.885609 170.880009 -67.683548 1.070760 -3.917555 65.660596 1.055998 -4.563933 21.454557 0.003109 0.000017 153.233231 -2.618303 -175.757365 -40.840266 2.417906 2.319410 72.784955 -2.808477 -3.433242 21.454551 -0.003095 -0.000001 8.796923 1.376814 -2.260957 7.527353 2.897481 -4.429064 7.209865 2.870579 -4.446446 15.980880 -4.345574 -12.525952 -14.251303 3.006557 -14.349480 -174.872787 -75.128420 -6.683706 -30.530416 57.554186 7.349155 -36.197697 -19.108460 1.655840 6.164148 -3.949894 5.035647 -150.847883 71.328485 31.415725 -1.076578 -53.357749 -42.245652 -23.774459 10.785474 -0.853408 7.157810 1.812552 -30.725288 
-169.512723 0.000000 -209.684754 0.000000 82.963919 0.000000 1.434440 85.741089 0.441533 97.274981 2.424997 -175.305351 178.492077 -3.825800 170.014965 -76.350833 2.015846 -5.873621 68.907757 2.352314 -5.162082 21.454557 0.003099 0.000008 156.834257 -2.992785 -175.436769 -39.627897 2.008811 1.864623 74.993811 -2.386361 -3.410856 21.454551 -0.003074 0.000000 8.775442 1.357621 -1.877375 7.494964 2.833737 -3.664103 7.177167 2.811446 -3.681129 16.879569 -4.167808 -12.181729 -14.131865 3.219210 -14.034649 -173.845526 -74.500930 -7.730271 -29.824339 58.465600 7.854089 -30.999698 -17.005779 1.404265 8.725195 -0.293497 11.231432 -154.193911 72.292102 27.951523 -6.937616 -54.941181 -37.518154 -23.748677 10.935128 -0.862707 7.334868 2.568333 -31.773729 
-169.496556 0.000000 -213.931180 0.000000 83.264425 0.000000 1.128516 86.989388 0.622490 97.398633 2.355680 -176.663850 172.114770 -4.506198 168.656591 -81.411620 2.717415 -7.580958 71.449837 3.737961 -4.937407 21.454563 0.003113 0.000015 160.916866 -3.496594 -177.857388 -37.237133 2.528042 2.374095 76.328177 -2.599627 -3.036931 21.454553 -0.003104 -0.000000 8.831176 1.213099 -1.403242 7.621405 2.515829 -2.724280 7.303378 2.499190 -2.739416 17.280534 -3.810353 -11.253489 -13.993134 3.128918 -13.007979 -172.193317 -73.714516 -9.418769 -26.582459 58.976081 11.945734 -27.879784 -15.901956 1.273806 9.194291 1.662818 16.709149 -156.956955 73.073503 25.097829 -15.058793 -55.839467 -31.973232 -24.090048 11.318070 -0.892407 6.046639 3.319255 -32.530022 
-169.497443 0.000000 -218.160548 0.000000 83.562665 0.000000 0.818444 88.296806 0.700504 97.104976 2.134791 -178.360828 165.830860 -4.809902 167.773420 -83.020574 2.602928 -8.962981 71.432823 5.258561 -3.342740 21.454560 0.003111 0.000016 165.088131 -3.541700 179.823800 -33.752227 2.934903 2.616453 77.043755 -2.694721 -2.822157 21.454553 -0.003094 0.000000 8.745205 0.990688 -0.948398 7.462427 2.040388 -1.831327 7.144289 2.029148 -1.843614 17.006109 -2.899468 -9.385257 -12.794981 1.578485 -10.472170 -169.457512 -73.387493 -12.224612 -21.026509 59.922821 18.447596 -26.285776 -15.434855 1.216289 9.146258 2.924621 19.486313 -159.878719 73.983550 22.085507 -23.501457 -56.076683 -26.766162 -25.326912 12.245058 -0.970943 4.668069 4.749805 -32.953149 
-169.507905 0.000000 -222.368982 0.000000 83.869013 0.000000 0.469484 89.354057 0.674020 96.543518 1.883440 179.832396 160.148566 -5.382390 167.709435 -81.384054 1.903295 -9.115553 70.649578 5.007740 -4.508537 21.454558 0.003111 0.000016 168.937407 -3.212698 178.169651 -30.170247 3.025706 2.460581 77.663048 -2.530141 -2.685554 21.454550 -0.003093 0.000000 8.598319 0.762436 -0.526330 7.177623 1.556018 -1.004547 6.859455 1.549773 -1.013919 16.560123 -1.588864 -6.207937 -12.354615 -0.257229 -6.500837 -167.496292 -72.547995 -14.239580 -13.074289 59.876744 25.933279 -26.433935 -15.030373 1.193015 8.813288 3.035396 18.910770 -163.263173 75.364034 18.603120 -30.879333 -55.789518 -20.419686 -28.266791 13.097614 -1.075191 4.151097 5.739393 -32.709250 
-169.537341 0.000000 -226.550426 0.000000 84.191275 0.000000 0.183113 90.053383 0.739003 95.809759 1.998557 177.866305 155.303612 -6.420201 167.620410 -77.258250 1.219162 -8.453244 71.232849 4.948133 -3.371237 21.454557 0.003118 0.000010 172.529199 -3.190309 176.355771 -26.648231 3.042759 2.400842 78.368914 -2.421022 -2.515444 21.454548 -0.003090 -0.000001 8.430805 0.621932 -0.066439 6.848655 1.246743 -0.096076 6.530454 1.246002 -0.103604 15.632631 0.189630 -2.366858 -11.660601 -2.637557 -1.655155 -164.780595 -71.975721 -17.033988 -5.562847 59.444646 34.158271 -27.091696 -15.050749 1.205571 8.766647 3.087979 15.433871 -166.172902 76.940633 15.618993 -37.606888 -54.878200 -13.913521 -32.436182 14.042556 -1.217150 3.684594 5.522000 -29.336277 
-169.575934 0.000000 -230.700162 0.000000 84.548774 0.000000 -0.043716 90.302467 0.800504 95.156427 2.315961 176.052284 151.605611 -7.535585 168.747746 -70.432617 -0.218676 -7.767482 70.746130 4.603153 -3.072885 21.454558 0.003114 0.000016 175.838057 -3.079700 175.192440 -23.886667 3.051729 2.073489 79.512862 -2.144932 -2.441814 21.454551 -0.003100 -0.000001 8.308578 0.539277 0.385035 6.608287 1.055811 0.800175 6.290157 1.060479 0.793781 14.746898 2.168706 1.364763 -10.826481 -5.860807 3.313456 -162.098803 -71.719766 -19.794800 1.352488 58.950079 40.726249 -27.983328 -14.914558 1.212638 7.743671 3.091076 12.849284 -169.339473 78.226423 12.387708 -42.858177 -52.883768 -9.492547 -37.532955 15.378024 -1.419766 3.465667 4.956536 -24.373909 
-169.626152 0.000000 -234.826365 0.000000 84.948139 0.000000 -0.131292 90.164040 0.827727 94.628800 2.777180 174.824614 149.396359 -8.078706 170.408220 -60.868146 -1.453572 -7.240636 70.648075 4.642868 -1.953665 21.454560 0.003111 0.000019 179.134238 -2.768211 174.892499 -21.646541 3.261147 1.557548 81.054360 -1.762786 -2.458498 21.454553 -0.003095 0.000000 8.209988 0.529017 0.723689 6.413931 1.017289 1.475520 6.095892 1.026055 1.469346 14.869354 4.182078 5.171462 -10.833284 -8.161520 8.084343 -160.660516 -71.163379 -21.282002 7.577011 57.658374 46.727663 -28.901242 -15.024879 1.236515 6.932727 3.125666 10.944044 -173.588629 78.728619 8.063694 -45.753224 -49.765294 -6.336337 -43.691026 16.268971 -1.642072 3.306087 3.748480 -22.291711 
-169.687113 0.000000 -238.938951 0.000000 85.384181 0.000000 -0.061872 89.749741 0.859583 94.380181 3.238906 174.221265 149.022310 -8.193298 172.541234 -48.317837 -2.336613 -6.493418 70.318976 3.761525 -3.109356 21.454557 0.003110 0.000017 -177.213383 -2.326999 174.415588 -19.505309 3.809397 1.484588 82.775220 -1.674218 -2.406250 21.454553 -0.003083 0.000001 8.197873 0.565366 0.933959 6.392127 1.078509 1.897678 6.074152 1.089829 1.891121 15.000460 6.109484 8.654279 -10.954287 -10.494304 12.520287 -159.333014 -70.994591 -22.651206 12.404943 56.787730 51.485577 -29.647293 -15.328937 1.270139 7.004090 3.505625 10.123459 -176.331907 79.358739 5.279295 -47.969457 -46.565604 -3.471973 -50.005430 16.857033 -1.874224 2.270602 2.974036 -22.420161 
-169.762652 0.000000 -243.036684 0.000000 85.852601 0.000000 0.075846 89.210243 0.926800 94.208725 3.542918 173.812948 150.559882 -7.750114 175.354138 -32.944632 -3.181712 -5.893731 69.160747 3.722515 -1.982725 21.454557 0.003105 0.000018 -173.461683 -1.746898 172.517683 -17.277319 4.785674 2.370395 84.444791 -2.224212 -2.233283 21.454555 -0.003097 -0.000001 8.219369 0.590208 1.097825 6.437097 1.118722 2.226750 6.119191 1.132005 2.219951 15.249253 7.639178 11.491570 -11.236081 -12.738808 16.246143 -157.969107 -71.076670 -24.053992 15.800483 56.480528 54.327632 -29.286191 -15.001867 1.242291 6.225262 3.380230 9.999049 -178.497077 79.626516 3.082299 -49.174640 -43.229200 -1.196125 -55.863974 17.114297 -2.091171 1.240720 2.628130 -24.713436 
-169.845841 0.000000 -247.122182 0.000000 86.330900 0.000000 0.123404 88.595589 0.980258 93.977636 3.606741 173.685686 152.364131 -7.336304 -179.367147 -19.241601 -4.754956 -7.520486 66.599221 4.730178 -2.548178 21.454557 0.003105 0.000016 -170.217972 -1.137502 170.666442 -15.784917 5.495410 3.469978 86.266457 -2.866422 -1.831440 21.454555 -0.003093 0.000000 8.215770 0.593532 1.186460 6.430766 1.120497 2.404060 6.112897 1.134850 2.397250 15.691475 8.688013 13.844980 -11.293137 -13.882077 19.063738 -157.377503 -70.968794 -24.664887 18.352483 56.278433 55.285966 -28.644954 -14.680817 1.209744 6.394710 4.187959 11.324109 -179.899724 80.117736 1.665709 -49.857615 -40.775352 1.508208 -61.337858 17.073714 -2.290601 0.869742 1.892000 -28.171211 
-169.926533 0.000000 -251.203731 0.000000 86.792763 0.000000 0.401874 87.545311 0.953944 94.336050 3.644522 173.730244 153.168440 -6.831215 -176.993492 -13.989548 -5.261421 -9.991114 67.362017 6.706316 -2.095936 21.454558 0.003112 0.000019 -167.852951 -0.776392 171.591919 -17.973907 5.225207 3.018408 89.452126 -2.391870 -1.211326 21.454550 -0.003099 0.000001 8.290664 0.546524 1.228993 6.579867 1.022588 2.487019 6.262029 1.037433 2.480801 16.347692 9.851225 15.500136 -11.410731 -15.051401 21.153904 -157.503288 -70.961390 -24.535626 20.264246 56.167108 55.675782 -27.370943 -14.267392 1.160382 6.562740 4.733878 12.071216 179.191898 80.533401 0.751096 -49.959992 -39.463723 5.368540 -66.082108 16.031630 -2.404249 -0.042890 1.389700 -32.920750 
